<svg xmlns="http://www.w3.org/2000/svg" width="285" height="95" viewBox="0 0 285 95">
  <defs>
    <style>
      .cls-1 {
        fill: #fcc;
      }

      .cls-1, .cls-2 {
        fill-rule: evenodd;
      }

      .cls-2 {
        fill: #f66;
      }
    </style>
  </defs>
  <path id="Forma_1" data-name="Forma 1" class="cls-1" d="M66.244,90.72a62.3,62.3,0,0,1-12.814-1.855c-5.9-1.535-13.347-4.679-15.361-10.935-3.589-11.148,8.3-26.942,17.846-39.632,7.323-9.731,13.107-17.417,12.678-22.763-0.262-3.27-2.921-6.4-7.9-9.291a75.078,75.078,0,0,0-15-6.179,1.426,1.426,0,1,0-.851,2.721c17.727,5.525,20.707,10.5,20.905,12.976,0.342,4.27-5.709,12.311-12.115,20.823C43.167,50.49,31.308,66.249,35.349,78.8,39.893,92.913,65.118,93.55,66.19,93.57h0.027A1.425,1.425,0,0,0,66.244,90.72ZM47.582,21.325a9.646,9.646,0,0,0-.827-8.233C41.612,4.275,23.476.622,22.706,0.471a1.425,1.425,0,1,0-.551,2.8,67.5,67.5,0,0,1,9.489,2.77c6.444,2.421,10.817,5.357,12.644,8.489a6.823,6.823,0,0,1,.586,5.9c-0.984,2.948-7.459,8.417-14.315,14.206C22.952,41.055,14.33,48.336,8.131,55.989,0.669,65.2-1.626,73,1.115,79.846A33.081,33.081,0,0,0,12.892,94.73a1.426,1.426,0,1,0,1.672-2.311,30.313,30.313,0,0,1-10.8-13.632c-5.328-13.3,14.3-29.875,28.636-41.98C40.192,30.228,46.344,25.032,47.582,21.325ZM11.054,30.453a1.427,1.427,0,0,0,2.221,1.792l2.559-3.161V35.8a1.428,1.428,0,0,0,2.856,0V29.085l2.559,3.161a1.427,1.427,0,0,0,2.221-1.792l-4.78-5.9V21.875l2.559,3.161a1.427,1.427,0,0,0,2.221-1.792l-4.78-5.9V14.666l2.559,3.161a1.427,1.427,0,0,0,2.221-1.792l-5.1-6.3a1.429,1.429,0,0,0-2.221,0l-5.1,6.3a1.427,1.427,0,0,0,2.221,1.792l2.559-3.161V17.34l-4.78,5.9a1.427,1.427,0,0,0,2.221,1.792l2.559-3.161v2.674ZM71.463,61.913a1.427,1.427,0,0,0,2.221-1.792l-7.4-9.141V44.6L71.463,51A1.427,1.427,0,0,0,73.684,49.2l-7.717-9.533a1.429,1.429,0,0,0-2.221,0L56.028,49.2A1.427,1.427,0,0,0,58.249,51l5.179-6.4v6.38l-7.4,9.141a1.427,1.427,0,0,0,2.221,1.792l5.179-6.4V61.9l-7.4,9.141a1.427,1.427,0,0,0,2.221,1.792l5.179-6.4V78.682a1.428,1.428,0,0,0,2.856,0V66.431l5.179,6.4a1.427,1.427,0,0,0,2.221-1.792l-7.4-9.141v-6.38Z"/>
  <path class="cls-2" d="M183.452,81.9H163.38a29.935,29.935,0,0,0,12-8.424C187.55,71.634,193,61.625,193,52.412c0-6.54-3.66-12-8.4-12.955,0-.05,0-0.1,0-0.149a3.368,3.368,0,0,0-3.292-3.276H105.585a3.368,3.368,0,0,0-3.293,3.276C102.42,56.925,105.5,74.737,123.517,81.9H103.28A4.24,4.24,0,0,0,99,86.155c0,1.966,1.317,3.44,3.622,3.931l20.907,1.474a1.236,1.236,0,0,1,1.152.819A4.747,4.747,0,0,0,128.961,95h27.328a4.34,4.34,0,0,0,4.115-2.621,1.239,1.239,0,0,1,1.153-.819l22.389-1.474h0.164c2.3-.491,3.622-1.966,3.622-3.931A4.24,4.24,0,0,0,183.452,81.9ZM184.6,42.911c2.8,0.983,4.939,4.914,4.939,9.5,0,6.383-2.959,14.074-11.175,16.865q0.206-.349.4-0.7C183.344,60.682,184.285,51.18,184.6,42.911Zm-79.019-3.6h75.727C181.147,61.421,176.373,81.9,143.448,81.9S105.75,61.421,105.585,39.308Zm78.2,47.5-22.06,1.474a5.132,5.132,0,0,0-3.95,2.621,1.683,1.683,0,0,1-1.317.819H128.962a1.68,1.68,0,0,1-1.317-.819,5.135,5.135,0,0,0-3.951-2.621L103.116,86.81c-0.823-.164-0.823-0.491-0.823-0.655a1.059,1.059,0,0,1,.987-0.983h80.336a1.06,1.06,0,0,1,.988.983C184.6,86.318,184.6,86.646,183.781,86.81ZM142.3,13.591c-2.469,2.457-3.786,4.914-3.786,7.535s1.317,5.241,3.786,7.862a1.6,1.6,0,0,0,2.305,0,1.579,1.579,0,0,0,0-2.293c-1.811-1.965-2.8-3.767-2.8-5.569a7.29,7.29,0,0,1,2.8-5.242c2.469-2.293,3.786-4.914,3.786-7.535A10.774,10.774,0,0,0,144.6.487a1.6,1.6,0,0,0-2.305,0,1.577,1.577,0,0,0,0,2.293c1.811,1.966,2.8,3.767,2.8,5.569A7.29,7.29,0,0,1,142.3,13.591Zm14.322,7.535c0,2.621,1.317,5.241,3.786,7.862a1.5,1.5,0,0,0,1.153.491,1.177,1.177,0,0,0,.988-0.491,1.579,1.579,0,0,0,0-2.293c-1.811-1.965-2.8-3.767-2.8-5.569a7.29,7.29,0,0,1,2.8-5.242c2.634-2.293,3.951-4.914,3.951-7.535A10.516,10.516,0,0,0,162.709.487a1.6,1.6,0,0,0-2.305,0,1.579,1.579,0,0,0,0,2.293c1.811,1.966,2.8,3.767,2.8,5.569s-0.988,3.44-2.8,5.242C157.935,16.048,156.618,18.505,156.618,21.126Zm-34.571,0c0,2.621,1.317,5.241,3.787,7.862a1.5,1.5,0,0,0,1.152.491,1.177,1.177,0,0,0,.988-0.491,1.579,1.579,0,0,0,0-2.293c-1.811-1.965-2.8-3.767-2.8-5.569a7.29,7.29,0,0,1,2.8-5.242c2.634-2.293,3.951-4.914,3.951-7.535A10.516,10.516,0,0,0,128.138.487a1.6,1.6,0,0,0-2.3,0,1.577,1.577,0,0,0,0,2.293c1.81,1.966,2.8,3.767,2.8,5.569s-0.988,3.44-2.8,5.242C123.364,16.048,122.047,18.505,122.047,21.126ZM133.9,73.706c-11.688-1.966-17.615-8.517-20.084-21.622a1.678,1.678,0,0,0-3.292.655c2.634,14.578,9.712,21.949,22.718,24.242h0.329a1.6,1.6,0,0,0,1.646-1.31A1.7,1.7,0,0,0,133.9,73.706Z"/>
  <path id="Forma_1_copie" data-name="Forma 1 copie" class="cls-1" d="M277.244,90.72a62.315,62.315,0,0,1-12.815-1.855c-5.9-1.535-13.347-4.679-15.361-10.935-3.589-11.148,8.3-26.942,17.846-39.632,7.323-9.731,13.107-17.417,12.678-22.763-0.262-3.27-2.921-6.4-7.9-9.291a75.065,75.065,0,0,0-15-6.179,1.426,1.426,0,1,0-.851,2.721c17.727,5.525,20.707,10.5,20.905,12.976,0.343,4.27-5.708,12.311-12.114,20.823-10.464,13.9-22.324,29.664-18.282,42.217,4.543,14.111,29.769,14.748,30.841,14.768h0.027A1.425,1.425,0,0,0,277.244,90.72ZM258.582,21.325a9.648,9.648,0,0,0-.827-8.233C252.612,4.275,234.476.622,233.706,0.471a1.425,1.425,0,1,0-.551,2.8,67.507,67.507,0,0,1,9.489,2.77c6.444,2.421,10.816,5.357,12.644,8.489a6.824,6.824,0,0,1,.585,5.9c-0.984,2.948-7.459,8.417-14.314,14.206-7.607,6.424-16.229,13.706-22.428,21.358C211.669,65.2,209.374,73,212.115,79.846A33.083,33.083,0,0,0,223.892,94.73a1.426,1.426,0,1,0,1.671-2.311,30.311,30.311,0,0,1-10.8-13.632c-5.328-13.3,14.3-29.875,28.636-41.98C251.192,30.228,257.344,25.032,258.582,21.325Zm-36.528,9.128a1.427,1.427,0,0,0,2.221,1.792l2.559-3.161V35.8a1.428,1.428,0,0,0,2.856,0V29.085l2.558,3.161a1.427,1.427,0,0,0,2.221-1.792l-4.779-5.9V21.875l2.558,3.161a1.427,1.427,0,0,0,2.221-1.792l-4.779-5.9V14.666l2.558,3.161a1.427,1.427,0,0,0,2.221-1.792l-5.1-6.3a1.429,1.429,0,0,0-2.221,0l-5.1,6.3a1.427,1.427,0,0,0,2.221,1.792l2.559-3.161V17.34l-4.78,5.9a1.427,1.427,0,0,0,2.221,1.792l2.559-3.161v2.674Zm60.409,31.459a1.427,1.427,0,0,0,2.221-1.792l-7.4-9.141V44.6l5.179,6.4a1.427,1.427,0,0,0,2.221-1.792l-7.718-9.533a1.429,1.429,0,0,0-2.221,0L267.028,49.2A1.427,1.427,0,0,0,269.249,51l5.179-6.4v6.38l-7.4,9.141a1.427,1.427,0,0,0,2.221,1.792l5.179-6.4V61.9l-7.4,9.141a1.427,1.427,0,0,0,2.221,1.792l5.179-6.4V78.682a1.428,1.428,0,0,0,2.856,0V66.431l5.179,6.4a1.427,1.427,0,0,0,2.221-1.792l-7.4-9.141v-6.38Z"/>
</svg>
